<svg width="32" height="32" viewBox="0 0 32 32" fill="none" xmlns="http://www.w3.org/2000/svg">
<g id="Icon - Like">
<path id="Vector" d="M26.4351 10.3758L26.4352 10.376C26.5325 10.8849 26.4498 11.4125 26.2009 11.8665C25.9519 12.3207 25.552 12.6729 25.0701 12.8598L25.0696 12.86L24.4291 13.1076L26.4351 10.3758ZM26.4351 10.3758L25.8875 7.51963L25.8875 7.51961C25.7835 6.97766 25.5283 6.47643 25.1512 6.07549C24.774 5.67449 24.2905 5.39057 23.7576 5.25822L23.7576 5.2582L13.4426 2.69782C12.1878 2.38633 10.8625 2.58925 9.75552 3.26153C8.64877 3.93367 7.85058 5.01992 7.53238 6.28261L7.53236 6.28271L5.61892 13.8817L5.6189 13.8818C5.51153 14.3085 5.50189 14.7544 5.5907 15.1854C5.6795 15.6165 5.86449 16.0218 6.13196 16.3702C6.39945 16.7186 6.74246 17.0011 7.13511 17.1956C7.52779 17.3901 7.95949 17.4914 8.39721 17.4914M26.4351 10.3758L8.39721 17.4914M14.3187 26.7386C14.3871 26.4671 14.4588 26.1964 14.5337 25.9267L14.3187 26.7386ZM14.3187 26.7386C14.0618 27.7271 13.936 27.9448 13.9198 27.9448C12.7461 27.9448 11.882 26.5976 11.882 24.2494C11.882 23.0391 12.3228 21.0524 13.2126 18.3414M14.3187 26.7386L19.8274 16.9063M19.8274 16.9063L19.8274 16.9064L15.9505 23.0485L15.9498 23.0496C15.8548 23.1992 15.7809 23.3656 15.7314 23.5398L15.7309 23.5415C15.3904 24.725 15.1529 25.5654 15.0155 26.0604L15.0155 26.0606C14.9416 26.3264 14.871 26.5931 14.8036 26.8606L14.8027 26.8644C14.6719 27.3673 14.5716 27.6861 14.4982 27.8853C14.4618 27.9839 14.4291 28.0614 14.3993 28.1206C14.3852 28.1486 14.3659 28.1842 14.3413 28.2194C14.3301 28.2354 14.3075 28.2666 14.2739 28.2995C14.2574 28.3156 14.2267 28.3437 14.1828 28.3706C14.146 28.3932 14.0521 28.4448 13.9198 28.4448C13.1098 28.4448 12.4548 27.9698 12.0274 27.2271C11.6063 26.4953 11.382 25.4759 11.382 24.2494C11.382 22.9523 11.8468 20.8993 12.7375 18.1857M19.8274 16.9063C20.921 15.1733 22.5341 13.8424 24.4286 13.1078L19.8274 16.9063ZM12.7375 18.1857C12.7375 18.1856 12.7375 18.1855 12.7375 18.1854L13.2126 18.3414M12.7375 18.1857C12.7374 18.1857 12.7374 18.1857 12.7374 18.1858L13.2126 18.3414M12.7375 18.1857C12.7636 18.1058 12.7706 18.0207 12.758 17.9374C12.7454 17.854 12.7134 17.7753 12.6653 17.7077C12.6171 17.6401 12.5542 17.5856 12.4822 17.5482C12.4102 17.5108 12.3308 17.4914 12.2505 17.4914M13.2126 18.3414C13.2631 18.1872 13.2767 18.023 13.2524 17.8624C13.228 17.7018 13.1664 17.5494 13.0725 17.4176C12.9787 17.2858 12.8553 17.1785 12.7125 17.1044C12.5697 17.0303 12.4116 16.9915 12.2511 16.9914M12.2505 17.4914H12.2511V16.9914M12.2505 17.4914L12.2511 16.9914M12.2505 17.4914H8.39726L8.39721 16.9914M12.2511 16.9914H8.39721M8.39721 16.9914V17.4914M8.39721 16.9914C8.03668 16.9914 7.68091 16.908 7.35705 16.7476C7.0332 16.5872 6.74983 16.3539 6.52858 16.0657C6.30732 15.7775 6.15403 15.4419 6.08041 15.0845C6.00679 14.7272 6.01479 14.3575 6.10379 14.0038L8.39721 17.4914M16.002 26.3484L16.0019 26.349C15.9477 26.5445 15.8966 26.7403 15.7954 27.1367C15.5459 28.0961 15.3228 28.684 15.0415 29.0371C14.7996 29.3409 14.4911 29.5 13.9185 29.5C12.838 29.5 11.9685 28.9942 11.3506 28.0953C10.7227 27.1818 10.3522 25.8519 10.3522 24.2494C10.3522 23.0796 10.6716 21.4123 11.3386 19.1888L11.5317 18.5451H10.8597H8.39586H8.39574C7.80326 18.5453 7.21836 18.4083 6.68562 18.1445C6.15287 17.8806 5.68614 17.4967 5.32142 17.0215C4.95668 16.5463 4.7037 15.9926 4.58221 15.4025C4.46072 14.8124 4.47404 14.202 4.62112 13.6179L4.13626 13.4958L4.62112 13.6179L6.53456 6.01892C6.92109 4.48396 7.89006 3.16743 9.22853 2.35424C10.5668 1.54119 12.167 1.29638 13.6818 1.67211L23.9967 4.23248L23.9968 4.23248C24.7187 4.41162 25.3756 4.79667 25.8894 5.34295C26.4033 5.88927 26.7523 6.57393 26.8945 7.31614C26.8945 7.31617 26.8945 7.3162 26.8945 7.31623L27.4408 10.1723L27.4408 10.1724C27.5856 10.9278 27.4627 11.7105 27.0944 12.3825C26.7261 13.0544 26.1366 13.5719 25.4306 13.8457L24.7912 14.0934L24.7911 14.0935C23.0999 14.7489 21.6621 15.936 20.6883 17.4789L20.6882 17.479L16.8147 23.6201C16.7719 23.6872 16.7389 23.76 16.7165 23.8362L16.7157 23.839C16.3776 25.0167 16.1392 25.8562 16.002 26.3484Z" fill="#5E5E75" stroke="#5E5E75"/>
</g>
</svg>
